<?xml version="1.0" encoding="UTF-8"?>
<svg xmlns="http://www.w3.org/2000/svg" xmlns:xlink="http://www.w3.org/1999/xlink" width="81.0889" height="122.019" viewBox="0 0 81.0889 122.019">
<defs>
<clipPath id="clip-0">
<path clip-rule="nonzero" d="M 0 0 L 81.089844 0 L 81.089844 87 L 0 87 Z M 0 0 "/>
</clipPath>
<clipPath id="clip-1">
<path clip-rule="nonzero" d="M 74.089844 11.523438 L 81 11.523438 L 81 18.523438 L 74.089844 18.523438 Z M 74.089844 11.523438 "/>
</clipPath>
<clipPath id="clip-2">
<path clip-rule="nonzero" d="M 20 37 L 26.9375 37 L 26.9375 44.820312 L 20 44.820312 Z M 20 37 "/>
</clipPath>
<clipPath id="clip-3">
<path clip-rule="nonzero" d="M 31.082031 82.105469 L 38 82.105469 L 38 87 L 31.082031 87 Z M 31.082031 82.105469 "/>
</clipPath>
<clipPath id="clip-4">
<path clip-rule="nonzero" d="M 42 115.019531 L 48 115.019531 L 48 120 L 42 120 Z M 42 115.019531 "/>
</clipPath>
<clipPath id="clip-5">
<path clip-rule="nonzero" d="M 48 116 L 51.773438 116 L 51.773438 122 L 48 122 Z M 48 116 "/>
</clipPath>
<clipPath id="clip-6">
<path clip-rule="nonzero" d="M 67 63 L 74 63 L 74 70 L 67 70 Z M 67 63 "/>
</clipPath>
<clipPath id="clip-7">
<path clip-rule="nonzero" d="M 65.53125 64.691406 L 71.894531 71.054688 L 74.015625 68.933594 L 67.652344 62.570312 Z M 65.53125 64.691406 "/>
</clipPath>
<clipPath id="clip-8">
<path clip-rule="nonzero" d="M 6 62 L 13 62 L 13 70 L 6 70 Z M 6 62 "/>
</clipPath>
<clipPath id="clip-9">
<path clip-rule="nonzero" d="M 6.480469 68.945312 L 8.601562 71.066406 L 14.964844 64.703125 L 12.84375 62.582031 Z M 6.480469 68.945312 "/>
</clipPath>
<clipPath id="clip-10">
<path clip-rule="nonzero" d="M 48 74 L 52 74 L 52 83 L 48 83 Z M 48 74 "/>
</clipPath>
<clipPath id="clip-11">
<path clip-rule="nonzero" d="M 48.140625 74.164062 L 49.460938 83.070312 L 52.429688 82.628906 L 51.105469 73.726562 Z M 48.140625 74.164062 "/>
</clipPath>
<clipPath id="clip-12">
<path clip-rule="nonzero" d="M 19 71 L 24 71 L 24 79 L 19 79 Z M 19 71 "/>
</clipPath>
<clipPath id="clip-13">
<path clip-rule="nonzero" d="M 17.460938 77.988281 L 20.210938 79.1875 L 23.808594 70.9375 L 21.058594 69.738281 Z M 17.460938 77.988281 "/>
</clipPath>
</defs>
<g clip-path="url(#clip-0)">
<path fill="none" stroke-width="1.4" stroke-linecap="butt" stroke-linejoin="miter" stroke="rgb(13.699341%, 12.298584%, 12.599182%)" stroke-opacity="1" stroke-miterlimit="10" d="M 0.00018125 -0.00109375 C -6.503725 7.041875 -10.476381 16.452031 -10.476381 26.791875 C -10.476381 48.608281 7.211119 66.295781 29.027525 66.295781 C 50.843931 66.295781 68.527525 48.608281 68.527525 26.791875 C 68.527525 16.412969 64.523619 6.971563 57.976744 -0.0792187 " transform="matrix(1, 0, 0, -1, 11.1756, 66.995)"/>
</g>
<path fill-rule="nonzero" fill="rgb(100%, 100%, 100%)" fill-opacity="1" stroke-width="1.4" stroke-linecap="butt" stroke-linejoin="miter" stroke="rgb(13.699341%, 12.298584%, 12.599182%)" stroke-opacity="1" stroke-miterlimit="10" d="M -0.0007625 0.00159375 C -5.000763 -1.40075 -10.360138 -1.830438 -15.832794 -1.103875 C -21.30545 -0.377313 -26.36795 1.435187 -30.828888 4.091437 " transform="matrix(1, 0, 0, -1, 50.8367, 78.2555)"/>
<path fill="none" stroke-width="0.5" stroke-linecap="butt" stroke-linejoin="miter" stroke="rgb(13.699341%, 12.298584%, 12.599182%)" stroke-opacity="1" stroke-miterlimit="10" d="M -0.00048125 0.00098125 C -7.035638 -10.870112 -19.270013 -18.065425 -33.184075 -18.065425 C -47.098138 -18.065425 -59.332513 -10.870112 -66.371575 0.00098125 " transform="matrix(1, 0, 0, -1, 73.3872, 61.6377)"/>
<path fill="none" stroke-width="0.5" stroke-linecap="butt" stroke-linejoin="miter" stroke="rgb(13.699341%, 12.298584%, 12.599182%)" stroke-opacity="1" stroke-miterlimit="10" d="M -0.000975 0.00088125 L 33.186525 -52.448337 L 66.370119 0.00088125 " transform="matrix(1, 0, 0, -1, 7.0166, 61.6376)"/>
<g clip-path="url(#clip-1)">
<path fill-rule="nonzero" fill="rgb(13.699341%, 12.298584%, 12.599182%)" fill-opacity="1" d="M 75.195312 13.589844 C 75.585938 12.445312 76.671875 12.433594 76.78125 12.433594 C 78.285156 12.433594 78.398438 14.179688 78.398438 14.964844 C 78.398438 15.574219 78.347656 15.742188 78.277344 15.941406 C 78.058594 16.671875 77.757812 17.828125 77.757812 18.085938 C 77.757812 18.195312 77.808594 18.261719 77.886719 18.261719 C 78.015625 18.261719 78.097656 18.046875 78.207031 17.664062 C 78.4375 16.828125 78.535156 16.261719 78.574219 15.953125 C 78.59375 15.824219 78.617188 15.695312 78.65625 15.5625 C 78.976562 14.578125 79.613281 13.09375 80.011719 12.304688 C 80.078125 12.1875 80.199219 11.96875 80.199219 11.925781 C 80.199219 11.828125 80.101562 11.828125 80.078125 11.828125 C 80.050781 11.828125 79.992188 11.828125 79.960938 11.898438 C 79.441406 12.84375 79.042969 13.839844 78.644531 14.847656 C 78.636719 14.539062 78.625 13.78125 78.238281 12.8125 C 78 12.207031 77.597656 11.71875 76.910156 11.71875 C 75.664062 11.71875 74.96875 13.234375 74.96875 13.539062 C 74.96875 13.640625 75.058594 13.640625 75.15625 13.640625 Z M 75.195312 13.589844 "/>
</g>
<g clip-path="url(#clip-2)">
<path fill-rule="nonzero" fill="rgb(13.699341%, 12.298584%, 12.599182%)" fill-opacity="1" d="M 26.683594 42.804688 L 26.433594 42.804688 C 26.382812 43.0625 26.34375 43.292969 26.253906 43.53125 C 26.203125 43.691406 26.175781 43.769531 25.597656 43.769531 L 24.800781 43.769531 C 24.929688 43.210938 25.238281 42.734375 25.6875 42.078125 C 26.15625 41.371094 26.5625 40.679688 26.5625 39.894531 C 26.5625 38.507812 25.21875 37.394531 23.53125 37.394531 C 21.820312 37.394531 20.496094 38.53125 20.496094 39.894531 C 20.496094 40.679688 20.902344 41.371094 21.371094 42.078125 C 21.808594 42.734375 22.128906 43.210938 22.257812 43.769531 L 21.460938 43.769531 C 20.882812 43.769531 20.851562 43.691406 20.804688 43.542969 C 20.722656 43.3125 20.675781 43.050781 20.625 42.804688 L 20.375 42.804688 L 20.703125 44.417969 L 22.296875 44.417969 C 22.515625 44.417969 22.546875 44.417969 22.546875 44.210938 C 22.546875 43.511719 22.238281 42.632812 22.011719 41.996094 C 21.800781 41.417969 21.519531 40.632812 21.519531 39.882812 C 21.519531 38.289062 22.617188 37.613281 23.523438 37.613281 C 24.480469 37.613281 25.535156 38.328125 25.535156 39.882812 C 25.535156 40.632812 25.265625 41.386719 24.976562 42.207031 C 24.828125 42.625 24.511719 43.519531 24.511719 44.210938 C 24.511719 44.417969 24.539062 44.417969 24.769531 44.417969 L 26.351562 44.417969 Z M 26.683594 42.804688 "/>
</g>
<g clip-path="url(#clip-3)">
<path fill-rule="nonzero" fill="rgb(13.699341%, 12.298584%, 12.599182%)" fill-opacity="1" d="M 36.746094 82.988281 C 36.875 82.988281 37.234375 82.988281 37.234375 82.648438 C 37.234375 82.410156 37.023438 82.410156 36.84375 82.410156 L 34.570312 82.410156 C 33.066406 82.410156 31.960938 84.054688 31.960938 85.238281 C 31.960938 86.117188 32.550781 86.8125 33.457031 86.8125 C 34.632812 86.8125 35.957031 85.605469 35.957031 84.074219 C 35.957031 83.902344 35.957031 83.425781 35.648438 82.988281 Z M 33.464844 86.59375 C 32.976562 86.59375 32.582031 86.234375 32.582031 85.519531 C 32.582031 85.21875 32.699219 84.402344 33.046875 83.816406 C 33.464844 83.128906 34.0625 82.988281 34.402344 82.988281 C 35.242188 82.988281 35.320312 83.644531 35.320312 83.953125 C 35.320312 84.421875 35.121094 85.238281 34.78125 85.746094 C 34.390625 86.335938 33.855469 86.59375 33.464844 86.59375 "/>
</g>
<g clip-path="url(#clip-4)">
<path fill-rule="nonzero" fill="rgb(13.699341%, 12.298584%, 12.599182%)" fill-opacity="1" d="M 45.601562 116.609375 C 45.664062 116.351562 45.890625 115.433594 46.589844 115.433594 C 46.640625 115.433594 46.878906 115.433594 47.085938 115.5625 C 46.808594 115.613281 46.609375 115.863281 46.609375 116.101562 C 46.609375 116.261719 46.71875 116.449219 46.988281 116.449219 C 47.207031 116.449219 47.527344 116.269531 47.527344 115.871094 C 47.527344 115.355469 46.941406 115.214844 46.601562 115.214844 C 46.023438 115.214844 45.671875 115.742188 45.554688 115.972656 C 45.304688 115.316406 44.765625 115.214844 44.476562 115.214844 C 43.441406 115.214844 42.875 116.5 42.875 116.75 C 42.875 116.847656 42.972656 116.847656 42.992188 116.847656 C 43.074219 116.847656 43.101562 116.828125 43.121094 116.738281 C 43.460938 115.683594 44.121094 115.433594 44.457031 115.433594 C 44.648438 115.433594 44.996094 115.523438 44.996094 116.101562 C 44.996094 116.410156 44.828125 117.078125 44.457031 118.472656 C 44.296875 119.089844 43.949219 119.507812 43.511719 119.507812 C 43.453125 119.507812 43.222656 119.507812 43.011719 119.378906 C 43.261719 119.328125 43.480469 119.121094 43.480469 118.84375 C 43.480469 118.570312 43.261719 118.492188 43.113281 118.492188 C 42.8125 118.492188 42.566406 118.75 42.566406 119.070312 C 42.566406 119.53125 43.0625 119.730469 43.5 119.730469 C 44.160156 119.730469 44.515625 119.03125 44.546875 118.96875 C 44.667969 119.339844 45.027344 119.730469 45.625 119.730469 C 46.652344 119.730469 47.21875 118.441406 47.21875 118.195312 C 47.21875 118.09375 47.128906 118.09375 47.097656 118.09375 C 47.007812 118.09375 46.988281 118.132812 46.96875 118.203125 C 46.640625 119.269531 45.960938 119.507812 45.644531 119.507812 C 45.253906 119.507812 45.09375 119.191406 45.09375 118.851562 C 45.09375 118.632812 45.15625 118.414062 45.265625 117.976562 Z M 45.601562 116.609375 "/>
</g>
<g clip-path="url(#clip-5)">
<path fill-rule="nonzero" fill="rgb(13.699341%, 12.298584%, 12.599182%)" fill-opacity="1" d="M 51.574219 118.894531 C 51.574219 118.128906 51.484375 117.578125 51.164062 117.089844 C 50.945312 116.765625 50.515625 116.488281 49.957031 116.488281 C 48.335938 116.488281 48.335938 118.390625 48.335938 118.894531 C 48.335938 119.398438 48.335938 121.257812 49.957031 121.257812 C 51.574219 121.257812 51.574219 119.398438 51.574219 118.894531 M 49.957031 121.0625 C 49.636719 121.0625 49.210938 120.875 49.070312 120.304688 C 48.972656 119.890625 48.972656 119.320312 48.972656 118.804688 C 48.972656 118.292969 48.972656 117.765625 49.078125 117.382812 C 49.222656 116.828125 49.671875 116.683594 49.957031 116.683594 C 50.332031 116.683594 50.695312 116.914062 50.820312 117.320312 C 50.933594 117.695312 50.941406 118.195312 50.941406 118.804688 C 50.941406 119.320312 50.941406 119.835938 50.847656 120.273438 C 50.710938 120.910156 50.234375 121.0625 49.957031 121.0625 "/>
</g>
<g clip-path="url(#clip-6)">
<g clip-path="url(#clip-7)">
<path fill-rule="nonzero" fill="rgb(13.699341%, 12.298584%, 12.599182%)" fill-opacity="1" d="M 68.804688 67.699219 C 70.199219 69.09375 71.859375 69.425781 73.410156 68.929688 L 73.332031 68.652344 C 71.796875 68.96875 70.597656 68.457031 69.324219 67.179688 C 68.0625 65.917969 67.554688 64.722656 67.863281 63.183594 L 67.597656 63.121094 C 67.097656 64.660156 67.421875 66.316406 68.804688 67.699219 "/>
</g>
</g>
<g clip-path="url(#clip-8)">
<g clip-path="url(#clip-9)">
<path fill-rule="nonzero" fill="rgb(13.699341%, 12.298584%, 12.599182%)" fill-opacity="1" d="M 11.546875 67.566406 C 12.929688 66.183594 13.253906 64.527344 12.753906 62.988281 L 12.488281 63.050781 C 12.800781 64.59375 12.292969 65.785156 11.027344 67.050781 C 9.753906 68.324219 8.554688 68.835938 7.019531 68.519531 L 6.941406 68.800781 C 8.492188 69.292969 10.152344 68.964844 11.546875 67.566406 "/>
</g>
</g>
<g clip-path="url(#clip-10)">
<g clip-path="url(#clip-11)">
<path fill-rule="nonzero" fill="rgb(13.699341%, 12.298584%, 12.599182%)" fill-opacity="1" d="M 51.371094 78.179688 C 51.085938 76.242188 49.945312 74.996094 48.410156 74.480469 L 48.300781 74.730469 C 49.726562 75.398438 50.382812 76.519531 50.644531 78.285156 C 50.910156 80.070312 50.605469 81.339844 49.4375 82.382812 L 49.617188 82.609375 C 50.933594 81.660156 51.660156 80.128906 51.371094 78.179688 "/>
</g>
</g>
<g clip-path="url(#clip-12)">
<g clip-path="url(#clip-13)">
<path fill-rule="nonzero" fill="rgb(13.699341%, 12.298584%, 12.599182%)" fill-opacity="1" d="M 19.453125 73.882812 C 18.664062 75.691406 18.964844 77.359375 19.992188 78.621094 L 20.222656 78.445312 C 19.367188 77.132812 19.40625 75.832031 20.128906 74.175781 C 20.839844 72.539062 21.765625 71.632812 23.316406 71.359375 L 23.277344 71.085938 C 21.660156 71.183594 20.234375 72.089844 19.453125 73.882812 "/>
</g>
</g>
</svg>
